<svg xmlns="http://www.w3.org/2000/svg" width="652" height="244" viewBox="0 0 652 244">
<defs>
    <radialGradient id="ign_h3d" cx="0.5" cy="0.5" r="0.5">
      <stop offset="0" stop-color="#52D4C2"/>
      <stop offset="1" stop-color="#2A9D8F"/>
    </radialGradient></defs>
<path d="M 148.57 85.24 A 47.52 47.52 0 1 1 95.43 85.24" fill="none" stroke="#3DBDAC" stroke-width="14.52" stroke-linecap="round"/><line x1="122.00" y1="119.36" x2="122.00" y2="58.64" stroke="#52D4C2" stroke-width="13.20" stroke-linecap="round"/><circle cx="122.00" cy="124.64" r="17.16" fill="url(#ign_h3d)"/>
<g fill="#FFFFFF">
<path transform="translate(234.000 110.320) scale(0.062000 -0.062000)" d="M344 700Q429 700 488.5 683.0Q548 666 584.5 626.0Q621 586 637.5 517.5Q654 449 654 345Q654 241 637.5 172.5Q621 104 584.5 64.0Q548 24 488.5 7.0Q429 -10 344 -10Q261 -10 191.5 -7.0Q122 -4 60 0L137 135Q173 132 226.0 130.5Q279 129 344 129Q387 129 411.5 147.0Q436 165 446.0 212.0Q456 259 456 345Q456 431 446.0 478.0Q436 525 411.5 543.0Q387 561 344 561Q283 561 235.5 561.0Q188 561 144 561L60 690Q123 694 191.5 697.0Q260 700 344 700ZM248 690V0H60V690Z"/>
<path transform="translate(277.966 110.320) scale(0.062000 -0.062000)" d="M210 693Q268 693 328.5 693.0Q389 693 447.5 690.5Q506 688 555 682L546 548H288Q266 548 254.0 536.5Q242 525 242 505V185Q242 165 254.0 153.5Q266 142 288 142H546L555 8Q506 3 447.5 0.5Q389 -2 328.5 -2.5Q268 -3 210 -3Q141 -3 98.0 38.0Q55 79 55 145V545Q55 612 98.0 652.5Q141 693 210 693ZM73 419H510V292H73Z"/>
<path transform="translate(315.422 110.320) scale(0.062000 -0.062000)" d="M306 704Q359 703 423.0 697.0Q487 691 547 672L535 550Q491 551 427.5 552.0Q364 553 303 553Q280 553 264.5 551.5Q249 550 239.5 545.5Q230 541 226.0 532.5Q222 524 222 509Q222 485 236.5 472.5Q251 460 288 447L417 399Q501 366 534.5 317.5Q568 269 568 192Q568 134 554.0 94.0Q540 54 508.5 31.0Q477 8 425.5 -3.0Q374 -14 298 -14Q263 -14 195.5 -9.0Q128 -4 43 17L54 149Q114 148 160.5 146.5Q207 145 241.5 144.5Q276 144 296 144Q330 144 348.0 147.5Q366 151 373.0 160.5Q380 170 380 188Q380 205 375.0 215.0Q370 225 357.5 232.0Q345 239 324 246L186 301Q104 335 70.0 382.0Q36 429 36 505Q36 565 51.0 603.0Q66 641 97.5 663.0Q129 685 181.0 694.5Q233 704 306 704Z"/>
<path transform="translate(353.560 110.320) scale(0.062000 -0.062000)" d="M339 700Q443 700 502.0 679.5Q561 659 586.0 609.0Q611 559 611 469Q611 379 587.5 329.5Q564 280 510.0 260.0Q456 240 365 240Q317 240 269.5 244.5Q222 249 181.0 256.5Q140 264 111.0 272.5Q82 281 71 287L74 375Q136 375 203.0 375.0Q270 375 335 375Q370 376 389.0 383.5Q408 391 415.5 411.5Q423 432 423 469Q423 507 415.5 528.0Q408 549 389.0 556.5Q370 564 335 564Q238 564 169.0 563.0Q100 562 75 559L60 690Q104 695 143.0 697.0Q182 699 228.0 699.5Q274 700 339 700ZM248 690V0H60V690Z"/>
<path transform="translate(393.806 110.320) scale(0.062000 -0.062000)" d="M210 693Q268 693 328.5 693.0Q389 693 447.5 690.5Q506 688 555 682L546 548H288Q266 548 254.0 536.5Q242 525 242 505V185Q242 165 254.0 153.5Q266 142 288 142H546L555 8Q506 3 447.5 0.5Q389 -2 328.5 -2.5Q268 -3 210 -3Q141 -3 98.0 38.0Q55 79 55 145V545Q55 612 98.0 652.5Q141 693 210 693ZM73 419H510V292H73Z"/>
<path transform="translate(431.262 110.320) scale(0.062000 -0.062000)" d="M340 700Q437 700 498.0 681.0Q559 662 587.5 617.5Q616 573 616 492Q616 448 603.5 412.0Q591 376 561.0 353.5Q531 331 479 325V319Q498 317 519.5 307.0Q541 297 559.5 274.5Q578 252 586 213L643 0H446L397 207Q390 239 375.0 249.5Q360 260 331 260Q259 261 212.0 261.0Q165 261 132.5 262.0Q100 263 71 265L74 396H336Q372 396 391.5 403.0Q411 410 419.0 428.5Q427 447 427 480Q427 514 419.0 532.0Q411 550 391.5 557.0Q372 564 336 564Q237 564 168.5 563.0Q100 562 75 560L60 690Q104 695 143.0 697.0Q182 699 228.5 699.5Q275 700 340 700ZM244 690V0H60V690Z"/>
<path transform="translate(473.368 110.320) scale(0.062000 -0.062000)" d="M401 690V0H213V690ZM600 690V547H13V690Z"/>
<path transform="translate(512.374 110.320) scale(0.062000 -0.062000)" d="M421 690Q444 690 461.5 677.0Q479 664 485 641L674 0H482L361 476Q357 493 354.0 512.5Q351 532 348 549H321Q319 532 315.5 512.5Q312 493 308 476L187 0H-5L184 641Q190 664 207.5 677.0Q225 690 248 690ZM516 299V164H153V299Z"/>
<path transform="translate(554.852 110.320) scale(0.062000 -0.062000)" d="M340 700Q437 700 498.0 681.0Q559 662 587.5 617.5Q616 573 616 492Q616 448 603.5 412.0Q591 376 561.0 353.5Q531 331 479 325V319Q498 317 519.5 307.0Q541 297 559.5 274.5Q578 252 586 213L643 0H446L397 207Q390 239 375.0 249.5Q360 260 331 260Q259 261 212.0 261.0Q165 261 132.5 262.0Q100 263 71 265L74 396H336Q372 396 391.5 403.0Q411 410 419.0 428.5Q427 447 427 480Q427 514 419.0 532.0Q411 550 391.5 557.0Q372 564 336 564Q237 564 168.5 563.0Q100 562 75 560L60 690Q104 695 143.0 697.0Q182 699 228.5 699.5Q275 700 340 700ZM244 690V0H60V690Z"/>
</g>
<g fill="#52D4C2">
<path transform="translate(234.000 148.320) scale(0.035000 -0.035000)" d="M213 692Q265 692 319.5 692.0Q374 692 427.0 690.0Q480 688 527 684L521 591H251Q223 591 209.5 577.0Q196 563 196 533V157Q196 127 209.5 113.0Q223 99 251 99H521L527 6Q480 2 427.0 0.5Q374 -1 319.5 -1.5Q265 -2 213 -2Q149 -2 110.5 33.5Q72 69 71 129V561Q72 621 110.5 656.5Q149 692 213 692ZM89 407H483V315H89Z"/>
<path transform="translate(260.150 148.320) scale(0.035000 -0.035000)" d="M760 690Q807 690 808 642L835 0H716L692 591H673L544 128Q535 87 493 87H405Q362 87 352 128L223 591H204L182 0H63L90 642Q92 690 138 690H263Q303 690 313 649L419 271Q426 247 430.5 223.0Q435 199 441 175H456Q462 199 467.0 223.0Q472 247 478 272L584 649Q593 690 635 690Z"/>
<path transform="translate(297.815 148.320) scale(0.035000 -0.035000)" d="M330 699Q421 699 473.0 679.5Q525 660 547.5 612.5Q570 565 570 478Q570 391 548.5 343.0Q527 295 477.5 276.0Q428 257 346 257Q301 257 259.5 260.0Q218 263 182.5 268.0Q147 273 122.0 278.5Q97 284 87 288L90 355Q147 355 207.5 355.0Q268 355 328 355Q372 356 397.5 366.0Q423 376 433.5 402.5Q444 429 444 478Q444 527 433.5 553.5Q423 580 397.5 590.5Q372 601 328 601Q240 601 177.0 600.0Q114 599 91 597L77 690Q117 694 152.5 696.0Q188 698 229.5 698.5Q271 699 330 699ZM202 690V0H77V690Z"/>
<path transform="translate(325.225 148.320) scale(0.035000 -0.035000)" d="M331 699Q417 699 470.5 681.0Q524 663 548.5 619.5Q573 576 573 497Q573 445 560.5 408.5Q548 372 519.5 350.5Q491 329 443 323V318Q460 314 478.5 302.5Q497 291 512.5 270.0Q528 249 536 216L599 0H467L410 213Q399 249 380.0 263.5Q361 278 328 278Q263 278 217.0 278.5Q171 279 140.5 280.0Q110 281 87 281L90 376H328Q373 377 399.0 386.5Q425 396 436.0 420.5Q447 445 447 490Q447 534 436.0 558.0Q425 582 399.0 591.5Q373 601 328 601Q240 601 177.0 600.0Q114 599 91 598L77 690Q117 694 152.5 696.0Q188 698 230.0 698.5Q272 699 331 699ZM200 690V0H77V690Z"/>
<path transform="translate(353.650 148.320) scale(0.035000 -0.035000)" d="M213 692Q265 692 319.5 692.0Q374 692 427.0 690.0Q480 688 527 684L521 591H251Q223 591 209.5 577.0Q196 563 196 533V157Q196 127 209.5 113.0Q223 99 251 99H521L527 6Q480 2 427.0 0.5Q374 -1 319.5 -1.5Q265 -2 213 -2Q149 -2 110.5 33.5Q72 69 71 129V561Q72 621 110.5 656.5Q149 692 213 692ZM89 407H483V315H89Z"/>
<path transform="translate(379.800 148.320) scale(0.035000 -0.035000)" d="M289 703Q340 702 396.5 697.0Q453 692 507 678L499 593Q456 594 399.5 595.5Q343 597 291 597Q259 597 236.5 595.0Q214 593 200.0 585.0Q186 577 179.5 560.5Q173 544 173 515Q173 470 191.5 451.0Q210 432 252 421L388 381Q470 356 501.0 308.5Q532 261 532 182Q532 123 518.0 85.0Q504 47 475.0 26.0Q446 5 399.0 -4.0Q352 -13 286 -13Q252 -13 192.5 -9.0Q133 -5 57 11L65 101Q124 99 164.0 97.5Q204 96 233.0 96.0Q262 96 287 96Q333 96 359.0 102.0Q385 108 395.5 127.0Q406 146 406 182Q406 213 398.5 230.5Q391 248 374.0 258.0Q357 268 330 275L189 318Q111 342 79.5 389.0Q48 436 48 515Q48 574 62.0 611.5Q76 649 105.0 668.5Q134 688 179.5 695.5Q225 703 289 703Z"/>
<path transform="translate(406.125 148.320) scale(0.035000 -0.035000)" d="M381 690Q397 690 409.0 681.0Q421 672 426 657L635 0H507L349 532Q345 548 341.0 564.0Q337 580 334 595H306Q303 580 299.0 564.0Q295 548 290 532L133 0H5L214 657Q218 672 230.5 681.0Q243 690 259 690ZM497 295V197H142V295Z"/>
<path transform="translate(434.725 148.320) scale(0.035000 -0.035000)" d="M331 699Q417 699 470.5 681.0Q524 663 548.5 619.5Q573 576 573 497Q573 445 560.5 408.5Q548 372 519.5 350.5Q491 329 443 323V318Q460 314 478.5 302.5Q497 291 512.5 270.0Q528 249 536 216L599 0H467L410 213Q399 249 380.0 263.5Q361 278 328 278Q263 278 217.0 278.5Q171 279 140.5 280.0Q110 281 87 281L90 376H328Q373 377 399.0 386.5Q425 396 436.0 420.5Q447 445 447 490Q447 534 436.0 558.0Q425 582 399.0 591.5Q373 601 328 601Q240 601 177.0 600.0Q114 599 91 598L77 690Q117 694 152.5 696.0Q188 698 230.0 698.5Q272 699 331 699ZM200 690V0H77V690Z"/>
<path transform="translate(463.150 148.320) scale(0.035000 -0.035000)" d="M202 690V0H77V690Z"/>
<path transform="translate(479.115 148.320) scale(0.035000 -0.035000)" d="M381 690Q397 690 409.0 681.0Q421 672 426 657L635 0H507L349 532Q345 548 341.0 564.0Q337 580 334 595H306Q303 580 299.0 564.0Q295 548 290 532L133 0H5L214 657Q218 672 230.5 681.0Q243 690 259 690ZM497 295V197H142V295Z"/>
<path transform="translate(507.715 148.320) scale(0.035000 -0.035000)" d="M199 690V160Q199 131 214.5 116.5Q230 102 259 102H503L509 7Q441 1 367.5 -0.5Q294 -2 222 -2Q146 -2 110.5 37.0Q75 76 75 136V690Z"/>
</g>
<g fill="#9FB4B0">
<path transform="translate(234.000 178.320) scale(0.016500 -0.016500)" d="M746 690Q785 690 786 649L814 0H716L691 609H671L525 114Q517 81 483 81H401Q366 81 357 114L211 609H191L168 0H70L97 649Q99 690 137 690H245Q277 690 287 657L408 249Q416 226 421.0 203.0Q426 180 433 155H450Q457 180 462.5 203.0Q468 226 475 251L596 657Q604 690 638 690Z"/>
<path transform="translate(251.786 178.320) scale(0.016500 -0.016500)" d="M214 691Q264 691 316.0 691.0Q368 691 418.5 689.5Q469 688 515 685L511 608H236Q206 608 192.0 593.0Q178 578 178 545V145Q178 112 192.0 96.5Q206 81 236 81H511L515 5Q469 2 418.5 1.0Q368 0 316.0 -0.5Q264 -1 214 -1Q152 -1 115.5 32.5Q79 66 78 122V568Q79 625 115.5 658.0Q152 691 214 691ZM96 402H472V325H96ZM415 937 467 864 269 746 237 789Z"/>
<path transform="translate(264.276 178.320) scale(0.016500 -0.016500)" d="M342 690V0H242V690ZM562 690V604H23V690Z"/>
<path transform="translate(277.128 178.320) scale(0.016500 -0.016500)" d="M336 703Q412 703 465.5 685.0Q519 667 551.0 626.0Q583 585 597.5 516.0Q612 447 612 345Q612 244 597.5 174.5Q583 105 551.0 64.0Q519 23 465.5 5.0Q412 -13 336 -13Q260 -13 206.5 5.0Q153 23 120.5 64.0Q88 105 73.0 174.5Q58 244 58 345Q58 447 73.0 516.0Q88 585 120.5 626.0Q153 667 206.5 685.0Q260 703 336 703ZM336 616Q271 616 233.0 591.0Q195 566 179.5 507.5Q164 449 164 345Q164 242 179.5 183.0Q195 124 233.0 99.0Q271 74 336 74Q401 74 438.5 99.0Q476 124 492.0 183.0Q508 242 508 345Q508 449 492.0 507.5Q476 566 438.5 591.0Q401 616 336 616Z"/>
<path transform="translate(291.416 178.320) scale(0.016500 -0.016500)" d="M334 699Q410 699 462.5 681.0Q515 663 547.0 622.5Q579 582 593.5 513.5Q608 445 608 345Q608 245 593.5 176.5Q579 108 547.0 67.5Q515 27 462.5 9.0Q410 -9 334 -9Q262 -9 200.5 -6.5Q139 -4 84 0L126 80Q168 78 219.5 76.5Q271 75 334 75Q398 75 435.0 100.0Q472 125 487.5 183.5Q503 242 503 345Q503 448 487.5 506.5Q472 565 435.0 590.5Q398 616 334 616Q272 616 223.0 615.0Q174 614 127 613L84 690Q139 694 200.5 696.5Q262 699 334 699ZM184 690V0H84V690Z"/>
<path transform="translate(305.621 178.320) scale(0.016500 -0.016500)" d="M336 703Q412 703 465.5 685.0Q519 667 551.0 626.0Q583 585 597.5 516.0Q612 447 612 345Q612 244 597.5 174.5Q583 105 551.0 64.0Q519 23 465.5 5.0Q412 -13 336 -13Q260 -13 206.5 5.0Q153 23 120.5 64.0Q88 105 73.0 174.5Q58 244 58 345Q58 447 73.0 516.0Q88 585 120.5 626.0Q153 667 206.5 685.0Q260 703 336 703ZM336 616Q271 616 233.0 591.0Q195 566 179.5 507.5Q164 449 164 345Q164 242 179.5 183.0Q195 124 233.0 99.0Q271 74 336 74Q401 74 438.5 99.0Q476 124 492.0 183.0Q508 242 508 345Q508 449 492.0 507.5Q476 566 438.5 591.0Q401 616 336 616Z"/>
<path transform="translate(326.772 178.320) scale(0.016500 -0.016500)" d="M134 320Q154 320 162.0 312.5Q170 305 170 285V232Q170 212 162.0 204.0Q154 196 134 196H105Q85 196 77.0 204.0Q69 212 69 232V285Q69 305 77.0 312.5Q85 320 105 320Z"/>
<path transform="translate(340.779 178.320) scale(0.016500 -0.016500)" d="M334 699Q410 699 462.5 681.0Q515 663 547.0 622.5Q579 582 593.5 513.5Q608 445 608 345Q608 245 593.5 176.5Q579 108 547.0 67.5Q515 27 462.5 9.0Q410 -9 334 -9Q262 -9 200.5 -6.5Q139 -4 84 0L126 80Q168 78 219.5 76.5Q271 75 334 75Q398 75 435.0 100.0Q472 125 487.5 183.5Q503 242 503 345Q503 448 487.5 506.5Q472 565 435.0 590.5Q398 616 334 616Q272 616 223.0 615.0Q174 614 127 613L84 690Q139 694 200.5 696.5Q262 699 334 699ZM184 690V0H84V690Z"/>
<path transform="translate(354.985 178.320) scale(0.016500 -0.016500)" d="M184 690V0H84V690Z"/>
<path transform="translate(362.606 178.320) scale(0.016500 -0.016500)" d="M351 703Q388 703 421.5 701.0Q455 699 486.5 694.5Q518 690 548 681L538 607Q506 610 474.5 611.5Q443 613 413.0 613.5Q383 614 355 614Q302 614 265.0 604.0Q228 594 206.5 565.0Q185 536 175.0 482.0Q165 428 165 341Q165 242 178.5 184.0Q192 126 223.5 100.0Q255 74 308 74Q345 74 375.0 84.0Q405 94 431.5 110.5Q458 127 482 144L495 86Q478 66 446.5 42.5Q415 19 373.0 3.0Q331 -13 278 -13Q201 -13 152.5 25.0Q104 63 81.5 142.5Q59 222 59 347Q59 483 87.0 561.0Q115 639 179.0 671.0Q243 703 351 703ZM567 399V0H494L478 102L469 124V399Z"/>
<path transform="translate(376.235 178.320) scale(0.016500 -0.016500)" d="M184 690V0H84V690Z"/>
<path transform="translate(383.857 178.320) scale(0.016500 -0.016500)" d="M342 690V0H242V690ZM562 690V604H23V690Z"/>
<path transform="translate(396.709 178.320) scale(0.016500 -0.016500)" d="M365 690Q378 690 388.0 682.5Q398 675 402 663L620 0H516L344 555Q340 570 336.0 585.0Q332 600 328 613H300Q296 600 292.0 585.0Q288 570 283 555L111 0H8L226 663Q230 675 240.0 682.5Q250 690 263 690ZM489 293V210H137V293Z"/>
<path transform="translate(410.271 178.320) scale(0.016500 -0.016500)" d="M181 690V146Q181 114 197.0 98.5Q213 83 246 83H493L498 6Q431 1 362.0 0.0Q293 -1 224 -1Q148 -1 115.0 36.5Q82 74 82 131V690Z"/>
<path transform="translate(428.881 178.320) scale(0.016500 -0.016500)" d="M746 690Q785 690 786 649L814 0H716L691 609H671L525 114Q517 81 483 81H401Q366 81 357 114L211 609H191L168 0H70L97 649Q99 690 137 690H245Q277 690 287 657L408 249Q416 226 421.0 203.0Q426 180 433 155H450Q457 180 462.5 203.0Q468 226 475 251L596 657Q604 690 638 690Z"/>
<path transform="translate(446.667 178.320) scale(0.016500 -0.016500)" d="M365 690Q378 690 388.0 682.5Q398 675 402 663L620 0H516L344 555Q340 570 336.0 585.0Q332 600 328 613H300Q296 600 292.0 585.0Q288 570 283 555L111 0H8L226 663Q230 675 240.0 682.5Q250 690 263 690ZM489 293V210H137V293Z"/>
<path transform="translate(460.229 178.320) scale(0.016500 -0.016500)" d="M282 702Q332 701 385.5 697.0Q439 693 492 681L485 610Q442 612 388.5 613.0Q335 614 285 614Q250 614 225.0 612.0Q200 610 184.0 601.0Q168 592 160.5 572.0Q153 552 153 517Q153 464 173.0 442.5Q193 421 238 410L377 373Q457 353 487.0 305.5Q517 258 517 178Q517 118 503.5 81.0Q490 44 461.5 24.0Q433 4 388.0 -4.0Q343 -12 281 -12Q247 -12 191.0 -9.0Q135 -6 62 8L69 81Q128 79 165.5 77.5Q203 76 230.0 76.0Q257 76 284 76Q334 76 363.0 83.5Q392 91 404.0 113.5Q416 136 416 179Q416 216 407.5 237.0Q399 258 380.5 268.5Q362 279 333 286L190 325Q115 346 84.0 393.0Q53 440 53 518Q53 578 66.5 615.0Q80 652 108.0 670.5Q136 689 179.0 695.5Q222 702 282 702Z"/>
<path transform="translate(472.768 178.320) scale(0.016500 -0.016500)" d="M342 690V0H242V690ZM562 690V604H23V690Z"/>
<path transform="translate(485.620 178.320) scale(0.016500 -0.016500)" d="M214 691Q264 691 316.0 691.0Q368 691 418.5 689.5Q469 688 515 685L511 608H236Q206 608 192.0 593.0Q178 578 178 545V145Q178 112 192.0 96.5Q206 81 236 81H511L515 5Q469 2 418.5 1.0Q368 0 316.0 -0.5Q264 -1 214 -1Q152 -1 115.5 32.5Q79 66 78 122V568Q79 625 115.5 658.0Q152 691 214 691ZM96 402H472V325H96Z"/>
<path transform="translate(498.110 178.320) scale(0.016500 -0.016500)" d="M327 699Q409 699 459.5 681.5Q510 664 533.0 620.5Q556 577 556 499Q556 444 543.0 407.0Q530 370 502.5 349.0Q475 328 428 322V317Q445 313 462.0 301.0Q479 289 494.0 268.5Q509 248 516 217L581 0H475L415 215Q403 253 382.0 269.0Q361 285 327 285Q264 285 219.0 285.5Q174 286 143.5 287.0Q113 288 94 288L97 368H325Q374 369 402.0 379.5Q430 390 442.5 417.0Q455 444 455 493Q455 542 442.5 568.5Q430 595 402.0 605.5Q374 616 325 616Q241 616 180.0 615.0Q119 614 98 614L84 690Q122 694 156.0 696.0Q190 698 230.5 698.5Q271 699 327 699ZM183 690V0H84V690Z"/>
</g>
</svg>